# xmcd
#
# Track frame offsets:
#	150
#	11822
#	24052
#	35550
#	50300
#	65407
#	73215
#	82537
#	101767
#	113982
#	125537
#	137142
#	148187
#
# Disc length: 2086 seconds
#
# Revision: 0
# Processed by: cddbd v1.5.1PL0 Copyright (c) Steve Scherf et al.
# Submitted via: EasyCDDAExtractor 4.6.9.1
#
DISCID=b208240d
DTITLE=The Travelers - Ridin' The Lines
DYEAR=1998
DGENRE=Bluegrass
TTITLE0=Ridin' The Lines
TTITLE1=How Could I Love Her So Much
TTITLE2=On Chariots Of Fire
TTITLE3=Shadow Of A Man
TTITLE4=Lonely Lady
TTITLE5=Who Throwed That Rock
TTITLE6=A Little Left Over
TTITLE7=Before The Battle
TTITLE8=I'm Over You
TTITLE9=I'm Gonna Be A Wheel Someday
TTITLE10=She Did It For The Love
TTITLE11=Keep On Going
TTITLE12=Lord What A Way To Go
EXTD=
EXTT0=
EXTT1=
EXTT2=
EXTT3=
EXTT4=
EXTT5=
EXTT6=
EXTT7=
EXTT8=
EXTT9=
EXTT10=
EXTT11=
EXTT12=
PLAYORDER=
